<?xml version="1.0" encoding="UTF-8" standalone="no"?>
<!-- Created with Inkscape (http://www.inkscape.org/) -->

<svg
   width="875.60211"
   height="1920"
   viewBox="0 0 875.60212 1920"
   version="1.1"
   id="svg5"
   inkscape:version="1.1.1 (3bf5ae0d25, 2021-09-20)"
   sodipodi:docname="mapa.svg"
   inkscape:export-filename="C:\Users\bogamedia\Desktop\mapa.svg.png"
   inkscape:export-xdpi="96"
   inkscape:export-ydpi="96"
   xmlns:inkscape="http://www.inkscape.org/namespaces/inkscape"
   xmlns:sodipodi="http://sodipodi.sourceforge.net/DTD/sodipodi-0.dtd"
   xmlns="http://www.w3.org/2000/svg"
   xmlns:svg="http://www.w3.org/2000/svg">
  <sodipodi:namedview
     id="namedview7"
     pagecolor="#ffffff"
     bordercolor="#666666"
     borderopacity="1.0"
     inkscape:pageshadow="2"
     inkscape:pageopacity="0.0"
     inkscape:pagecheckerboard="0"
     inkscape:document-units="px"
     showgrid="false"
     inkscape:zoom="0.11959277"
     inkscape:cx="-1015.9477"
     inkscape:cy="1091.2031"
     inkscape:window-width="1920"
     inkscape:window-height="1009"
     inkscape:window-x="-8"
     inkscape:window-y="-8"
     inkscape:window-maximized="1"
     inkscape:current-layer="layer2"
     fit-margin-top="0"
     fit-margin-left="0"
     fit-margin-right="0"
     fit-margin-bottom="0" />
  <defs
     id="defs2" />
  <g
     inkscape:label="Layer 1"
     inkscape:groupmode="layer"
     id="layer1"
     transform="translate(-570.13459,-847.30156)">
    <path
       d="m 1023.3384,2590.3616 c -12.5892,-1.4744 5.7671,-12.5075 0,0 z m 8.0798,9.8454 c -10.4819,-16.3711 36.5672,-22.4527 3.2728,-6.1644 z m 26.9132,-12.1849 c -17.1831,-7.4429 20.2776,-28.292 0,0 z m 31.7553,37.516 c -19.4691,0.2189 4.4075,-15.7496 0,0 z m 38.0674,18.5749 c -48.1751,-10.8613 -21.8456,-48.1851 -63.0439,-72.5252 43.6284,-32.9381 -68.22219,28.5255 -55.3069,-6.3033 4.3686,-39.0088 34.4141,-102.1841 55.1567,-33.4207 -23.2142,-37.4824 -33.151,22.0531 -7.7804,20.6369 1.4256,5.9649 23.9637,-50.8389 44.0457,-6.0756 27.1429,16.1078 73.4344,44.9812 16.752,27.7162 9.3813,35.1196 53.375,12.1641 13.87,56.9894 -3.5521,1.5658 5.8652,19.9983 -3.6932,12.9823 z"
       title="Auckland"
       id="NZ-AUK"
       style="stroke:#000000;stroke-width:3.80753"
       sodipodi:nodetypes="cccccccccccccccccc" />
    <path
       d="m 897.27751,2556.9525 c -31.42297,-3.9979 -26.10949,-22.4422 0,0 z m -143.7567,-191.7351 c 1.77611,28.1096 41.95839,18.8306 34.13201,54.6434 73.44181,8.6008 -62.30044,33.8268 3.2549,50.4563 40.21855,16.1664 131.61329,39.4794 112.91328,91.8318 -6.87066,-42.9022 -51.1397,-15.9006 -53.31145,-16.1289 -73.82989,-5.133 -150.23154,12.3319 -153.22142,95.0477 -10.32212,62.5793 -53.40743,-59.2236 -15.96519,-63.924 -1.09555,-64.0625 50.02973,-113.9343 43.83637,-174.436 21.12939,-9.9805 -6.256,-54.911 28.3615,-37.4903 z"
       title="Bay of Plenty"
       id="NZ-BOP"
       style="stroke:#000000;stroke-width:3.80753" />
    <path
       id="NZ-CAN"
       style="stroke:#000000;stroke-width:3.80753"
       d="m 1144.6323,849.56079 c -45.0686,4.28933 -69.8341,74.04121 -118.8781,42.53619 -23.8994,11.24395 -59.9283,22.99677 -68.87799,-0.36412 -28.86528,13.19487 -107.59753,18.73568 -81.5563,64.77577 26.70585,47.29867 91.00343,76.86617 87.13284,138.24327 18.75111,55.371 33.84755,-39.7574 61.99855,-1.9767 18.7075,-16.8268 51.2071,-25.8562 66.7,8.727 29.9853,13.0549 45.1005,81.3992 29.3469,96.1705 -45.5508,24.1978 -23.7514,100.5729 -77.2381,125.7734 -38.4655,4.4552 -93.33807,-58.1846 -128.56691,-17.6739 -14.84889,26.7371 -101.38366,30.6643 -55.10054,75.7747 26.75195,61.9279 -7.70206,128.2867 -49.36779,173.8013 -11.8417,25.784 -103.85986,44.2452 -58.95844,68.5269 74.81923,-19.9663 59.75073,70.5218 44.73583,114.163 -10.49824,53.0567 4.3651,108.6155 -42.21969,147.9439 1.42305,34.8385 65.4465,47.2696 37.9137,89.9328 -16.49911,32.9395 46.00319,-70.9527 51.11127,-16.2004 21.39796,23.9789 39.38258,-40.9454 49.30159,-59.4106 40.30859,1.5241 46.45422,80.1343 92.89851,45.9986 29.92617,13.3338 -31.96486,65.9925 17.31017,31.2637 30.6213,-17.7937 -1.3682,-80.7732 29.1268,-73.9708 -25.5932,-50.7698 -46.38235,-105.2218 -13.8268,-159.6745 15.5771,-47.1506 -24.36368,-89.2971 -15.6751,-137.771 1.1692,-41.2293 13.5818,-82.5373 37.7447,-116.1888 13.4696,-71.0187 55.262,-131.7024 80.3447,-198.5526 44.0844,-9.2019 58.2078,-98.3281 26.0418,-81.7925 31.6054,4.483 10.0778,-35.1226 32.4575,-45.0325 -0.8284,-26.0966 1.2123,-65.9688 11.4974,-77.8832 -15.6545,-17.8526 32.8089,-22.7736 6.2571,-40.503 22.8072,-24.6574 -13.9756,-57.13362 -20.3314,-60.37279 39.9177,23.03879 47.3244,-65.91865 8.0639,-31.41918 15.4828,-26.54727 -15.2482,-2.96226 -0.143,-28.67799 -35.273,8.01579 44.636,-30.26263 14.9471,-55.05404 -15.9209,10.89362 -38.1877,20.8132 -25.3662,-8.22854 -31.0761,49.91326 1.1201,-18.76288 -28.8241,-12.88387 z m 35.9483,71.50634 c -18.2161,1.00132 -5.1737,14.15296 0,0 z m -282.08391,980.41517 -1.1685,2.4841 z m -72.19794,46.1662 -0.14131,0.5875 z m -104.63999,48.4641 c -4.3301,19.6527 21.45038,2.7905 0,0 z"
       sodipodi:nodetypes="scccccccccccccccccccccccccccccccccsscccccccccc" />
    <path
       d="m 674.47115,2675.6997 c -73.44756,26.7306 -44.05134,-74.6249 -79.7789,-110.3219 6.70512,-30.355 9.88866,-70.4383 12.10787,-86.9772 33.39149,-8.0058 67.62716,14.6521 91.96454,9.0807 -5.12336,49.411 -17.74613,90.7265 -32.31285,120.2225 -1.89314,30.5994 32.04991,44.0235 8.01934,67.9959 z"
       title="Gisborne District"
       id="NZ-GIS"
       style="stroke:#000000;stroke-width:3.80753" />
    <path
       d="m 615.1397,2215.0381 c 35.65182,-16.067 55.45997,36.0599 88.53796,35.648 17.19913,45.6747 12.65952,86.8447 49.33181,110.517 -42.07014,34.4114 -10.78981,122.0477 -81.23294,129.599 -29.31519,-25.8653 -104.45606,2.8817 -91.16565,-47.504 50.97533,53.6451 131.46952,-95.6228 45.41048,-110.4139 -11.2068,-41.9067 -8.25942,-78.3557 -10.88166,-117.8461 z"
       title="Hawke's Bay"
       id="NZ-HKB"
       style="stroke:#000000;stroke-width:3.80753" />
    <path
       d="m 618.68667,2213.2982 c -14.8878,-65.078 44.5258,-76.8008 86.91206,-102.1722 56.4296,-61.0493 47.26747,99.4224 125.37803,73.9559 15.47161,10.0145 -0.40028,61.2687 42.54441,71.8815 -22.99017,53.7009 73.82612,43.7299 30.40572,100.177 -24.10641,31.5571 -57.9918,52.347 -65.77822,-1.8469 -24.66976,-16.6416 -41.70507,-82.6552 -61.31856,-22.9709 -24.33639,52.5585 -70.054,-13.0253 -61.69243,-44.5893 -0.0985,-56.4138 -57.35547,-42.2473 -82.66885,-79.0978 -4.88008,0.8501 -8.42235,6.0019 -13.78216,4.6627 z"
       title="Manawatu-Wanganui"
       id="NZ-MWT"
       style="stroke:#000000;stroke-width:3.80753" />
    <path
       d="m 1414.1011,2764.1239 c 19.3799,-27.6875 -66.9755,-48.0349 -68.4154,-47.0164 6.0729,48.1173 -15.289,-24.6591 -32.4651,17.189 -20.3396,-9.8354 -54.9177,14.7948 -61.1304,-11.5496 -27.5932,-17.2988 -15.4845,40.4583 -46.1553,-3.8974 -30.5841,-7.2449 -67.8762,-47.0006 -24.2904,-49.6143 -34.9651,9.9819 -68.884,-52.3868 -29.1958,-61.1871 -15.6523,24.0944 30.7403,12.4055 8.8746,1.6913 67.4959,11.1546 -46.4009,-37.4373 20.561,-19.8021 34.0003,28.6541 137.4095,43.3056 110.6962,83.2733 44.9259,-68.0233 61.6955,58.9962 120.2473,52.2992 60.9335,12.3977 15.7553,11.392 1.2733,38.6141 z"
       title="Northland"
       id="NZ-NTL"
       style="stroke:#000000;stroke-width:3.80753" />
    <path
       d="m 944.81899,2321.4694 c -36.08058,3.5801 -85.28613,-23.6346 -70.15037,-67.1353 -79.86549,-36.2849 -12.17558,-106.1594 49.47422,-71.2575 74.70338,-34.1656 81.46206,71.6669 19.42479,94.6695 -3.07087,14.3007 -5.61807,29.9832 1.25136,43.7233 z"
       title="Taranaki"
       id="NZ-TKI"
       style="stroke:#000000;stroke-width:3.80753" />
    <path
       d="m 1031.8053,2646.6963 c -27.5671,3.1916 -39.50763,-30.8206 -62.07318,-9.7127 1.51634,-27.7682 -73.04321,-48.8701 -60.86928,-98.3844 -26.95966,-59.9413 -119.49281,-40.2196 -133.15843,-91.4366 38.54306,-7.1516 44.0012,-21.5076 7.17086,-31.4672 14.32809,-36.5541 -67.07366,-37.2976 -12.76034,-72.0484 11.31006,-44.3925 42.9911,-41.4029 53.33099,0.3279 28.35312,26.9607 34.0075,77.9491 69.93612,19.9895 15.56976,-50.6724 74.21063,-51.5975 72.39026,12.1365 19.03785,27.8172 8.31529,21.5227 -5.30792,42.7646 23.82469,-6.8051 16.47368,44.4931 23.36936,37.8678 31.67806,-3.1056 52.33476,48.5927 36.43216,79.9895 19.6667,56.2058 -84.129,-4.5769 -41.83212,50.0841 22.66102,20.2648 28.91222,39.7916 53.37152,59.8894 z"
       title="Waikato"
       id="NZ-WKO"
       style="stroke:#000000;stroke-width:3.80753" />
    <path
       d="m 743.13826,2092.4745 c -51.17424,-1.9229 -85.54131,79.877 -123.22164,48.4176 -3.04282,-42.753 0.46998,-166.6871 56.28499,-149.3541 14.01754,30.4303 45.04869,-26.9096 54.39857,12.0432 -9.84466,-40.2006 39.10462,-6.9153 11.04027,24.7242 3.0894,21.331 -1.68219,43.0579 1.49781,64.1691 z"
       title="Wellington"
       id="NZ-WGN"
       style="stroke:#000000;stroke-width:3.80753"
       sodipodi:nodetypes="cccccc" />
    <path
       style="fill:#000000;stroke:#000000;stroke-width:0.175879"
       d="m 660.52577,2014.8902 c -8.10407,-43.8793 11.91688,-32.0199 31.24975,-13.9408 38.52501,-45.3206 76.47925,-3.6272 50.52969,49.139 -32.50212,-10.756 -95.00181,28.5106 -81.77944,-35.1982 z m 67.44939,-8.1443 -0.62742,-0.1113 z m 4.37829,-7.2438 c 1.15646,-4.5578 -2.7831,4.0608 0,0 z m -8.17574,-4.536 -0.26247,-0.3262 z"
       id="path2464" />
    <path
       style="fill:#000000;stroke:#000000;stroke-width:0.175879"
       d="m 660.54764,2014.8597 c -7.57939,-45.2105 11.20356,-32.143 31.41097,-13.8686 42.7364,-52.6022 86.4669,13.7034 37.31566,49.7244 -25.73261,-6.1438 -82.19051,18.4187 -68.73195,-26.8918 l 0.006,-8.964 z m 71.99071,-15.9631 -0.0338,-0.3303 z m -0.20003,-0.3047 -0.3997,0.2436 z"
       id="path2503" />
    <path
       style="fill:#000000;stroke:#000000;stroke-width:1.40702"
       d="m 1406.0888,2764.9201 c 0.6764,-60.0436 -66.8826,-24.1689 -78.6388,-42.205 -30.0435,37.171 -86.4424,-5.454 -107.7733,14.4509 -52.6086,-32.1439 -73.541,-98.5012 -136.8354,-115.5474 26.0804,-25.4238 -39.4589,-69.7023 -58.3452,-40.3411 55.2149,16.8321 -23.6598,17.0851 -35.78998,-16.3425 -50.4633,-3.6599 97.26368,121.148 7.35274,71.0842 -59.26315,14.8155 -79.77641,-114.7935 -167.69595,-86.7091 -72.73559,-8.6851 -127.71331,31.3424 -130.85963,104.0342 -29.73932,52.185 -93.59385,22.5479 -81.88652,-36.6261 -36.22931,-37.7913 -19.07814,-82.9394 -11.29893,-119.1696 -21.4584,-27.1889 -49.89573,-70.5928 1.42353,-44.8349 71.03084,-14.8418 68.4396,-101.3804 15.93536,-130.1668 -8.62529,-86.0332 -12.80897,-189.4225 7.78226,-265.9152 60.3561,-12.7119 136.76737,-14.9251 122.87947,68.7284 24.58576,76.0026 118.20866,52.0967 178.38346,50.0555 84.92259,-12.5476 57.24319,83.8188 11.71284,113.7577 17.34985,68.1516 34.39298,145.1824 83.82045,199.59 27.5499,27.3548 131.4878,79.0896 110.7362,91.0356 -54.388,-5.4593 79.2113,53.4641 26.7847,10.3457 66.0367,16.5583 144.8285,48.8592 192.8979,95.0834 -0.8317,53.1597 155.9251,23.0377 49.4148,79.6921 z m 7.4187,-18.7196 -1.6161,0.3646 z m -157.4226,-19.7159 c -4.7276,-4.6806 -1.0264,3.9093 0,0 z m 93.8991,-10.0251 c 6.3055,-15.211 -9.0039,2.0873 0,0 z m -177.8716,-39.2208 c 31.0158,-9.0274 -20.5903,-0.3922 0,0 z m 128.743,-19.3469 c -1.5485,-5.0244 -0.5406,4.9154 0,0 z m -204.3708,-38.1893 c -2.8633,-12.6269 -8.4098,17.2468 0,0 z m 46.5607,-10.485 -0.13,1.2709 z m -75.0531,-42.162 -1.3509,0.777 z m 3.8229,-4.2851 c 11.9244,-1.8113 -6.1359,-3.8597 0,0 z m -326.81661,-6.9527 c -5.26949,-1.5258 0.62293,3.9435 0,0 z m 155.55745,-0.2453 -1.37548,-0.4034 z m -5.65827,-6.4948 c -13.60048,-22.1284 -17.26589,4.3509 0,0 z m 165.35593,1.1767 c 17.8987,-3.3506 -12.405,-6.1908 0,0 z m -184.03177,-6.6833 c -1.20644,-11.9704 -9.40891,9.0565 0,0 z m 172.77557,0.7035 -5.5077,-2.2675 z m 17.2361,-0.3517 -0.9697,-0.025 z m -9.6733,-1.2075 -2.3284,-2.6222 z m -4.7488,-1.6896 -1.3509,0.7768 z m -190.65224,0.084 h -1.34809 z m 205.99374,-2.481 -0.658,1.138 z m -18.4859,-4.4557 c 3.9163,-14.4979 -7.0478,11.7005 0,0 z m 18.2989,1.3555 c -13.811,-5.4317 -3.0441,3.9521 0,0 z m -9.1576,-3.9875 c -3.1396,-2.7588 1.3204,5.3008 0,0 z m 13.7016,-0.6754 -4.1958,1.0253 z m -16.4236,-3.0021 c -2.851,-8.4259 -3.2683,1.8787 0,0 z m -79.54861,-98.6769 c 0.69598,-9.3969 -6.12688,6.0557 0,0 z m -8.85143,-13.3784 c 13.14817,-16.1616 -5.67933,2.4816 0,0 z"
       id="path2542" />
    <path
       style="fill:#000000;stroke:#000000;stroke-width:1.40702"
       d="m 1408.3171,2765.7206 c 7.9665,-45.5269 -91.7226,-52.0604 -69.9617,-33.7073 -23.9478,-6.3053 -80.8724,20.8999 -97.8369,-4.5132 -28.9675,38.779 -86.4346,-50.5501 -102.571,-78.4452 -82.4309,1.4651 -28.1866,-95.1512 -111.1889,-73.1881 4.1044,1.5878 38.8458,15.1539 1.0376,22.3985 -20.4221,-40.8703 -86.91233,-43.6808 -32.38448,3.105 28.55468,24.3548 51.28688,69.096 -1.85693,36.11 -54.62941,5.9034 -84.56684,-113.7323 -164.94856,-87.8183 -60.49269,1.373 -130.97264,14.2345 -124.2996,91.6234 -19.1256,58.2595 -104.85838,50.9115 -86.98869,-18.3015 -57.66997,-54.5162 17.56642,-122.8995 -44.15474,-172.7712 12.74663,-4.4645 67.27242,13.4811 80.01569,-35.2456 44.45612,-63.9746 -63.28754,-75.0724 -39.44673,-148.2739 -1.894,-66.1511 10.36453,-132.2713 4.36651,-198.3537 22.03605,-27.0893 67.90124,-8.6087 101.14324,-14.0638 52.37958,-3.2194 10.4394,110.6362 81.1062,122.2451 54.10215,19.2004 173.14092,-37.6368 188.39228,42.4412 -70.93655,60.4172 -29.74571,150.2131 3.31124,222.1125 26.55227,73.055 123.06797,81.4691 155.78947,147.2018 -67.7349,-23.8322 73.201,55.07 13.339,-0.923 53.6117,11.9705 124.5546,48.7039 181.2069,77.7424 -4.6306,58.5867 166.2941,55.7777 65.9301,100.6249 z m -57.8143,-53.5625 c -9.8841,-3.468 2.679,12.2331 0,0 z m -179.0818,-34.9342 c 25.6787,-7.1506 -14.8877,-2.3107 0,0 z m -73.8811,-59.5751 c -9.8541,-0.3701 -3.1719,11.1122 0,0 z m 22.8642,-43.4751 -1.7394,-0.3596 z m -45.3557,-13.3275 c -5.8995,-7.0377 -0.2734,4.9997 0,0 z m -330.32082,-4.2601 -0.96967,-0.025 z m 149.61722,-7.496 c -1.43969,-12.8623 -16.46452,0.8993 0,0 z m -18.20801,-5.871 c 1.55862,-10.0476 -10.55215,6.3049 0,0 z m 99.37801,-116.0237 c -5.57647,-0.025 1.67518,4.271 0,0 z m -8.878,-12.1916 c -3.45378,-1.8465 -0.43548,8.5935 0,0 z m 2.13525,-2.592 c 2.4546,-6.475 -4.5683,5.0431 0,0 z"
       id="path2581" />
    <path
       style="fill:#000000;stroke:#000000;stroke-width:1.40702"
       d="m 1406.5584,2765.7824 c -3.1332,-57.2277 -65.7202,-28.6078 -79.6484,-38.2704 -30.6094,35.1387 -88.3644,-14.5135 -100.8065,15.8066 -63.1293,-27.7711 -66.4308,-105.8901 -140.241,-108.1271 8.706,-42.5601 -20.4169,-75.8116 -67.0162,-55.6819 60.4894,-8.224 -6.9757,46.8528 -14.7702,-6.7546 -95.62444,-34.0713 92.3482,105.9546 -6.06163,68.4023 -60.04253,1.5404 -79.00498,-100.0335 -148.10081,-94.5106 -73.93837,-0.9898 -154.57623,19.195 -152.34742,106.4592 -29.74372,62.029 -96.18027,16.6057 -84.26177,-39.4747 -50.94296,-53.688 17.9083,-111.9888 -38.09175,-163.176 3.27656,-28.2453 44.49445,38.3651 59.15125,-12.9003 48.42144,-31.3512 21.65725,-92.9306 -12.46699,-110.4332 -16.77216,-83.0976 -0.59429,-167.7892 -2.33773,-251.7623 0.43436,-37.4885 119.2844,-28.7957 123.99658,-4.3332 -8.5411,104.8721 103.27667,124.1952 180.81533,105.5351 78.83934,-15.2408 72.86715,61.8848 28.26473,100.2766 -13.75285,68.0605 27.00196,145.8367 66.18461,201.2279 35.8208,40.5803 110.0636,65.3708 126.9393,107.7878 -72.4247,-21.393 64.0456,49.2248 11.1516,1.3294 66.4795,19.3563 167.8064,49.6856 196.0208,102.2621 21.0306,30.9472 145.2853,34.1532 53.6262,76.3373 z m -56.8918,-51.7217 c -0.062,-8.6594 -4.0496,7.4916 0,0 z m -177.0345,-37.8772 c 33.8642,-9.5814 -17.6484,2.175 0,0 z m -76.8331,-58.2741 c -9.3055,1.9824 0.6551,5.0029 0,0 z m -22.0496,-57.9583 -0.14,0.7891 z m -179.53475,-11.444 c -7.11648,-14.4514 -11.85566,4.0411 0,0 z m -18.28169,-5.2304 c 1.59335,-8.0792 -12.26279,3.9892 0,0 z"
       id="path2620" />
    <path
       style="fill:#000000;stroke:#000000;stroke-width:1.40702"
       d="m 1405.8549,2765.7672 c -2.6667,-58.0287 -66.0222,-26.6035 -79.4141,-38.0995 -33.1811,33.1834 -85.506,-8.8571 -104.9922,11.1589 -56.9882,-30.952 -73.3583,-97.1161 -137.956,-114.0853 10.5715,-35.0296 -31.843,-61.5744 -54.5012,-46.3411 46.3771,22.0245 -24.6784,29.2218 -31.04662,-8.1746 -78.88315,-27.0192 96.09612,112.6898 -1.50269,71.52 -44.06991,-21.912 -34.74054,-4.8785 -66.82622,-49.5043 -40.95442,-60.8081 -123.01827,-43.1301 -183.13163,-30.0229 -53.3023,24.8652 -34.63935,156.7746 -120.70304,112.6299 -6.96111,-61.8893 -56.12486,-123.6445 -23.11999,-177.1791 -10.29052,-15.2636 -52.14149,-62.0552 -12.52199,-54.0315 43.28122,42.0044 117.63981,-97.3599 32.49708,-109.2426 -23.26118,-86.8816 3.55532,-176.3772 -5.81441,-264.7699 39.66374,-31.59 150.50639,-32.8887 138.27977,49.4148 28.18468,107.6686 155.98604,29.6145 224.60317,67.7167 36.28097,57.4143 -83.67818,110.1427 -15.25048,173.9453 11.56138,68.3047 49.92305,127.2685 110.97235,161.2694 19.3319,13.6404 113.4546,73.9676 46.558,57.5927 4.5272,20.9545 81.198,37.82 34.02,10.6278 76.2719,6.6929 154.104,53.2335 208.9631,102.9897 27.6838,32.2814 125.5549,41.9131 40.8871,72.5856 z m -56.457,-52.3392 c -2.3171,-5.0185 -0.9462,6.2652 0,0 z m -175.4403,-38.1137 c 8.3802,-6.595 -17.8462,7.4118 0,0 z m -78.8163,-56.6381 -1.7248,1.3671 z m -201.67597,-70.1138 c -6.08366,-11.8272 -9.94299,0.9053 0,0 z m -17.85522,-6.0935 c -0.55605,-5.3462 -9.57229,5.8691 0,0 z"
       id="path2659" />
    <path
       style="fill:#000000;stroke:#000000;stroke-width:1.40702"
       d="m 1408.4991,2766.319 c -9.292,-61.2147 -79.1228,-29.4328 -71.8633,-35.9581 -38.0113,11.8921 -93.4891,6.9658 -119.8967,5.5194 -54.7945,-25.7245 -61.6128,-96.1985 -126.4149,-102.9283 -11.236,-48.5426 -32.3215,-66.1148 -60.9148,-52.1299 46.9712,15.5672 -32.58993,24.3293 -39.42062,-13.4122 -53.60598,-4.7305 101.79322,106.8104 7.06829,77.0133 -70.07643,-23.226 -106.36741,-129.8901 -200.63789,-90.3195 -100.10196,-26.609 -66.5697,127.8156 -148.48471,128.0264 -53.71189,-10.1049 -18.15857,-80.5653 -58.14522,-113.269 10.10041,-46.7599 18.77335,-83.2779 -19.15892,-120.9497 36.65019,15.8917 111.10656,-27.887 89.88016,-89.1884 -70.84238,-26.2493 -47.1663,-127.8873 -41.55431,-187.7005 -2.89619,-53.1019 -19.85063,-142.8914 64.68722,-117.5995 102.90769,-24.8079 41.12171,146.1698 154.56373,125.684 54.74993,-7.896 201.88477,-18.3049 132.66236,73.6929 -54.18357,61.6074 9.26652,151.1124 38.42691,213.3515 28.6047,47.5667 134.5289,77.1587 129.5944,121.2469 -40.5678,-12.4766 67.7596,42.4748 18.2303,-1.5498 77.8373,20.2035 164.8934,55.4173 214.3943,113.8842 32.3443,24.8782 114.9164,35.429 36.9837,66.5863 z m -234.2762,-91.5427 c -0.9094,-3.3379 -4.608,4.5159 0,0 z m -281.07053,-126.6055 -5.16953,-2.8365 z m -18.45057,-6.1212 -1.71646,0.035 z"
       id="path2698" />
    <path
       id="path2737"
       style="fill:#000000;stroke:#000000;stroke-width:1.40702"
       d="m 682.42713,2054.2479 c -103.92088,-29.1769 -51.60343,92.9468 -68.42163,151.5621 -12.49993,67.2601 6.75623,134.6509 48.792,177.6958 -1.33726,44.8272 -60.70883,87.4483 -88.04306,59.4267 18.3653,42.975 37.77684,73.4273 12.43509,118.316 36.74903,43.8167 19.03008,162.9728 100.62084,107.9946 19.1339,-53.7011 41.91666,-132.1588 121.06041,-115.8939 102.81969,-40.7128 124.5235,104.3 217.59622,96.469 -1.4062,-31.185 -92.78472,-107.13 -12.6313,-78.0374 49.206,7.138 59.3855,5.8264 70.0015,48.1035 25.3161,34.3617 76.9984,30.9368 87.0381,83.1619 51.2612,48.0517 87.9235,34.8666 155.3056,33.6223 2.0307,-30.8377 25.1245,28.6992 35.3129,-13.2411 27.905,11.0565 71.0704,72.6046 78.9908,8.4945 -81.5174,-14.2418 -102.3979,-95.1863 -185.9935,-109.7083 -35.5961,-10.3611 -95.2373,-60.2513 -95.174,-23.6663 -42.0463,-75.3991 -150.9737,-90.2828 -174.62167,-178.6828 -27.67924,-63.5478 -60.66687,-131.9509 -0.41395,-190.4101 20.14142,-88.3928 -111.92961,-45.6186 -163.38376,-47.5751 -88.79032,-1.6385 -42.2294,-156.1653 -138.47059,-127.6314 z m 207.38737,491.8178 1.90754,1.7092 z m 127.7305,25.0686 0.5504,0.2788 z"
       sodipodi:nodetypes="cccccccccccccccccccccccccc" />
  </g>
  <g
     inkscape:groupmode="layer"
     id="layer2"
     inkscape:label="Layer 2"
     style="display:inline"
     transform="translate(-570.13459,-847.30156)">
    <rect
       style="fill:#ff0000;stroke-width:53.0849"
       id="rect925"
       width="21.639488"
       height="68.898148"
       x="649.12506"
       y="1945.9615" />
    <path
       style="fill:#00ff00;stroke:none;stroke-width:2.17968px;stroke-linecap:butt;stroke-linejoin:miter;stroke-opacity:1"
       d="m 731.50456,1996.3437 c 60.1917,-20.4289 60.1917,-20.4289 60.1917,-20.4289 l 2.66093,8.0121 -62.00374,19.9087 z"
       id="path960" />
  </g>
</svg>
